<?xml version="1.0" encoding="utf-8"?>
<!-- Generator: Adobe Illustrator 16.0.0, SVG Export Plug-In . SVG Version: 6.00 Build 0)  -->
<!DOCTYPE svg PUBLIC "-//W3C//DTD SVG 1.1//EN" "http://www.w3.org/Graphics/SVG/1.1/DTD/svg11.dtd">
<svg version="1.1" id="Layer_1" xmlns="http://www.w3.org/2000/svg" xmlns:xlink="http://www.w3.org/1999/xlink" x="0px" y="0px"
	 width="332.775px" height="192.953px" viewBox="0 0 332.775 192.953" enable-background="new 0 0 332.775 192.953"
	 xml:space="preserve">
<g>
	<path fill="#FFFFFF" d="M160.789,30.374h-7c0,13.964-15.281,22.304-21.034,25.443c-12.253,6.688-19.02,14.596-20.688,24.177
		C110,91.882,96.788,98.258,84.806,98.414l0.091,6.999c14.869-0.192,31.345-8.573,34.067-24.218
		c1.278-7.343,6.886-13.634,17.145-19.233C142.858,58.278,160.789,48.492,160.789,30.374z"/>
	<path fill="#FFFFFF" d="M251.408,52.867c-0.997,0.758-2.099,1.564-3.263,2.416c-7.848,5.742-18.596,13.604-19.738,23.206
		l6.951,0.827c0.783-6.576,10.109-13.4,16.921-18.383c1.2-0.878,2.338-1.711,3.366-2.494c3.942-3,5.92-7.108,7.484-10.992
		c3.326-0.161,7.762-0.586,12.42-1.036c2.661-0.257,5.363-0.518,7.788-0.718c-0.812,1.342-1.612,2.653-2.384,3.913
		c-3.014,4.927-5.859,9.58-7.73,13.365l6.274,3.104c1.733-3.503,4.499-8.027,7.427-12.816c8.637-14.124,19.386-31.702,17.415-44.651
		l-0.622-4.087l-3.928,1.287c-11.027,3.614-29.217,19.16-35.821,25.697c-3.469,3.433-5.157,7.766-6.646,11.589
		C255.756,47.114,254.403,50.588,251.408,52.867z M297.408,14.498c-0.896,7.005-5.114,15.696-9.771,23.893
		c-3.358,0.146-7.938,0.585-12.76,1.051c-2.992,0.289-6.036,0.583-8.679,0.79c0.742-1.392,1.599-2.67,2.695-3.755
		C275.743,29.698,288.488,19.283,297.408,14.498z"/>
	<path fill="#FFFFFF" d="M316.42,58.581c-66.455,22.062-124.063,38.692-166.603,48.098c-63.235,13.98-80.094,9.25-84.515,5.187
		c-0.966-0.889-1.956-2.287-1.455-5.147c0.145-0.469,0.223-0.966,0.223-1.497c0-1.455-0.587-2.666-1.562-3.68
		c-0.12-8.158,7.549-11.045,19.794-14.641c9.429-2.769,19.179-5.631,21.549-13.958c0.468-1.644,0.588-3.258,0.694-4.683
		c0.114-1.542,0.213-2.873,0.688-3.968c0.926-2.138,2.376-3.229,4.57-4.882c0.455-0.342,0.92-0.692,1.394-1.063
		c2.539-1.984,5.382-3.415,8.391-4.929c3.678-1.851,7.481-3.766,10.917-6.819c7.373-6.553,13.173-17.69,14.689-27.538
		c10.925,3.256,26.186,3.281,36.722,3.281c0.047,0,0.095,0,0.142,0h0.142v-7h-0.142c-0.048,0-0.096,0-0.144,0
		c-11.22,0-28.068-0.017-37.708-4.024c-2.767-1.15-5.518-2.534-8.179-3.873c-7.866-3.957-15.997-8.05-26.401-7.37l0.456,6.985
		c8.5-0.561,15.446,2.938,22.8,6.638c1.817,0.915,3.681,1.844,5.591,2.73c-0.822,8.463-6.158,19.194-12.618,24.938
		c-2.751,2.445-5.987,4.074-9.414,5.799c-3.181,1.601-6.469,3.256-9.554,5.666c-0.439,0.344-0.872,0.669-1.294,0.987
		c-2.518,1.896-5.121,3.856-6.782,7.691c-0.945,2.18-1.104,4.333-1.246,6.232c-0.089,1.197-0.173,2.329-0.445,3.285
		c-1.313,4.614-8.831,6.821-16.789,9.158c-10.283,3.02-22.711,6.679-24.595,17.926c-5.626-1.532-12.395-1.665-14.505-1.665
		c-1.89,0-7.515,0.105-12.71,1.227c1.165-8.504-2.021-15.242-9.157-18.886l-0.097-0.047c-6.354-3.002-10.422-7.666-11.763-13.485
		c-1.727-7.491,0.992-16.41,7.46-24.47c8.056-10.04,20.48-11.808,33.633-13.68c6.797-0.967,13.826-1.968,20.297-4.196
		c0.801-0.276,1.654-0.582,2.547-0.919c-2.059,1.784-4.254,3.361-6.383,4.891c-4.213,3.027-8.57,6.158-12.038,10.953
		c-3.427,4.738-6.371,9.354-8.807,13.801c-0.34-0.568-0.716-1.128-1.171-1.668c-4.354-5.166-12.437-5.88-18.171-3.917
		c-5.536,1.896-8.968,6.15-9.18,11.382l6.994,0.283c0.12-2.948,2.488-4.369,4.454-5.042c3.862-1.322,8.596-0.513,10.55,1.805
		c2.418,2.871,1.337,7.234-0.589,13.563c-1.214,3.99-2.47,8.117-2.058,11.91l0.999-0.108c-0.062,0.212-0.11,0.432-0.178,0.641
		l6.652,2.18c1.04-3.174,1.463-6.448,1.873-9.615c0.493-3.808,0.958-7.405,2.411-10.796c2.698-6.298,6.7-13.133,11.894-20.315
		c2.802-3.875,6.517-6.544,10.45-9.37c2.476-1.778,5.035-3.617,7.536-5.861c7.749-6.95,17.269-16.811,18.617-24.318L88.451,0.94
		c-1.307,5.355-9.469,11.095-21.835,15.353c-5.84,2.011-12.234,2.921-19.004,3.884C33.69,22.158,19.294,24.208,9.505,36.406
		C1.687,46.145-1.528,57.233,0.683,66.825c1.836,7.966,7.209,14.264,15.542,18.217c5.377,2.77,6.871,8.06,4.442,15.724
		c-0.019,0.061-0.03,0.104-0.047,0.156c-1.374,1.127-2.228,2.533-2.229,4.295l0,0c-0.006,0.528-0.392,2.396-0.732,4.044
		c-1.991,9.632-6.132,29.671,4.743,43.023c6.647,8.162,17.721,12.3,32.914,12.3c52.056,0,255.083-95.454,263.701-99.517
		L316.42,58.581z M55.315,157.585c-12.985,0-22.233-3.271-27.486-9.721c-8.484-10.417-5.317-27.441-3.497-36.306
		c5.923,2.264,14.477,2.438,16.899,2.438c2.305,0,10.163-0.158,16.022-2.124c0.72,2.282,2.032,3.968,3.312,5.146
		c5.297,4.868,16.005,6.754,32.735,5.756c14.656-0.873,34.179-3.988,58.028-9.26c30.092-6.654,67.653-16.893,110.501-30.088
		C195.998,112.706,89.515,157.585,55.315,157.585z"/>
	<path fill="#FFFFFF" d="M108.942,42.764c3.758-3.596,8.705-12.144,7.389-19.074c-0.649-3.417-2.782-6.024-6.005-7.342
		c-8.416-3.442-15.084,2.674-19.497,6.72c-0.657,0.603-1.292,1.187-1.91,1.72c-2.2,1.901-10.123,9.345-17.418,18.302
		c-9.295,11.413-13.148,19.853-11.778,25.805c0.595,2.583,2.45,5.966,7.913,7.42c1.337,0.356,2.649,0.533,3.92,0.533
		c2.366,0,4.589-0.614,6.559-1.828c5.169-3.187,7.127-9.347,7.834-12.736l-6.853-1.43c-0.8,3.835-2.541,6.904-4.655,8.207
		c-1.39,0.856-3.027,1.016-5.004,0.49c-2.535-0.675-2.785-1.762-2.892-2.226c-1.733-7.528,16.896-28.55,26.952-37.241
		c0.667-0.576,1.354-1.206,2.063-1.856c4.717-4.325,8.108-7.039,12.117-5.399c1.051,0.43,1.566,1.058,1.776,2.169
		c0.687,3.617-2.312,9.802-5.352,12.71L108.942,42.764z"/>
	<path fill="#FFFFFF" d="M141.369,86.579c0.031-0.05,0.062-0.1,0.093-0.151c4.112-6.675,7.997-12.98,13.463-15.893
		c17.598-9.375,25.148-22.116,23.764-40.097l-6.979,0.537c1.16,15.072-5.032,25.367-20.076,33.381
		c-7.14,3.803-11.711,11.224-16.132,18.399C132.27,88.001,129.19,93,125.35,96.374c-0.819,0.604-1.617,1.214-2.389,1.828l4.11,5.659
		c0.925-0.613,1.805-1.286,2.646-2.01c11.694-8.59,28.129-16.094,41.886-19.02c8.875-1.889,16.232-6.826,20.717-13.9
		c3.156-4.978,2.453-9.951,1.832-14.339c-0.586-4.146-1.049-7.423,1.252-10.694c3.543-5.032,3.258-9.926,3.026-13.858
		c-0.247-4.223-0.252-6.543,2.411-9.03c6.371-5.948,25.135-8.099,31.206-8.383l-0.327-6.992c-1.061,0.05-26.08,1.319-35.656,10.259
		c-5.188,4.847-4.875,10.229-4.621,14.555c0.201,3.427,0.375,6.386-1.762,9.42c-3.897,5.537-3.101,11.175-2.46,15.705
		c0.597,4.222,0.878,6.944-0.812,9.61c-3.47,5.472-9.244,9.308-16.263,10.802C161.023,77.926,150.797,81.756,141.369,86.579z"/>
	<path fill="#FFFFFF" d="M210.034,25.374l-0.002,7c0.023,0,0.047,0,0.072,0c5.903,0,12.779-0.199,19.713-1.093
		c-0.801,7.413-4,11.021-10.135,17.281c-4.6,4.694-7.971,10.167-11.23,15.46c-3.196,5.189-6.51,10.54-11.002,15.214
		c-4.004,1.251-7.981,2.614-11.797,3.922c-3.635,1.246-7.066,2.423-10.147,3.37l2.056,6.691c3.188-0.979,6.674-2.174,10.363-3.439
		c11.45-3.926,24.428-8.377,34.264-8.378v-7c-4.106,0-8.57,0.65-13.174,1.676c1.944-2.784,3.688-5.606,5.398-8.384
		c3.199-5.193,6.22-10.099,10.271-14.232c7.263-7.413,11.61-12.417,12.25-23.366c8.416-1.754,16.448-4.812,22.42-10.102
		l-4.643-5.239c-8.066,7.146-22.661,10.62-44.623,10.62C210.072,25.374,210.052,25.374,210.034,25.374z"/>
	<path fill="#FFFFFF" d="M203.374,175.361c-2.021,0.463-4.734-0.56-9.073-3.415c-5.378-3.542-11.19-4.354-16.754-2.61
		c1.617-3.988,2.913-8.238,3.938-12.824c1.781-0.227,3.58-0.503,5.361-0.781c6.838-1.063,13.909-2.166,18.025,0.058l3.327-6.159
		c-6.192-3.344-14.445-2.059-22.431-0.814c-0.979,0.153-1.961,0.303-2.938,0.446c0.272-1.8,0.521-3.636,0.726-5.543
		c0.221-2.063,1.166-3.696,2.887-4.991c4.25-3.195,12.052-3.584,17.897-2.552c9.493,1.675,16.224-1.599,21.832-10.618l-5.944-3.695
		c-4.672,7.512-9.078,8.41-14.67,7.421c-7.127-1.259-16.994-0.908-23.322,3.85c-3.264,2.455-5.215,5.857-5.641,9.841
		c-0.261,2.44-0.587,4.769-0.966,7.017c-2.055,0.055-3.914-0.091-5.401-0.595l-2.244,6.631c1.899,0.644,3.996,0.91,6.197,0.959
		c-2.197,8.804-5.57,16.178-10.421,22.947l5.646,4.137c9.114-12.168,17.755-8.441,21.047-6.273
		c4.512,2.971,9.389,5.562,14.485,4.391c3.998-0.916,7.441-3.992,10.834-9.683l-6.012-3.586
		C207.444,172.798,205.354,174.907,203.374,175.361z"/>
	<path fill="#FFFFFF" d="M279.101,108.021h-7c0,6.759-0.375,14.238-3.162,18.479c-5.277,8.025-8.526,16.098-10.226,25.402
		c-0.341,1.867-0.659,3.758-0.978,5.654c-0.481,2.867-0.973,5.791-1.555,8.654c-0.496-1.223-1.033-2.76-1.613-4.607l-0.127-0.404
		c-2.313-7.344-2.721-12.305-1.674-20.411c0.555-4.28,1.732-7.292,3.226-11.106c0.319-0.815,0.646-1.651,0.976-2.524
		c1.547-4.088,1.769-11.104-0.869-16.054c-1.459-2.738-3.625-4.514-6.263-5.131c-7.247-1.699-14.274,3.723-17.487,13.487
		c-1.721,5.228-2.469,13.707-1.668,18.899c0.264,1.714,0.559,3.16,0.818,4.437c0.514,2.517,0.917,4.502,0.936,7.595
		c0.021,3.821-0.883,8.018-2.761,12.829c-2.995,7.679-6.739,12.604-11.784,15.499l3.484,6.071
		c6.415-3.683,11.264-9.905,14.821-19.026c2.204-5.648,3.264-10.689,3.237-15.412c-0.021-3.778-0.533-6.291-1.076-8.953
		c-0.256-1.258-0.521-2.558-0.758-4.104c-0.625-4.062,0.041-11.519,1.398-15.646c1.622-4.931,5.2-9.808,9.242-8.86
		c0.625,0.146,1.189,0.687,1.681,1.606c1.513,2.84,1.479,7.701,0.5,10.287c-0.319,0.847-0.638,1.657-0.946,2.448
		c-1.535,3.922-2.984,7.627-3.648,12.761c-1.182,9.15-0.692,15.059,1.939,23.41l0.125,0.397c1.573,5.017,4.207,13.427,10.564,12.864
		l2.423-0.209l0.649-2.344c1.381-4.988,2.261-10.228,3.111-15.294c0.313-1.864,0.625-3.722,0.961-5.558
		c1.523-8.35,4.443-15.6,9.188-22.814C278.578,124.579,279.101,116.209,279.101,108.021z"/>
	<path fill="#FFFFFF" d="M332.749,163.145l-6.973,0.625c-0.007-0.071,0.003-0.114,0.004-0.117c-0.082,0.345-0.938,1.365-2.28,2.084
		c-3.351,1.796-8.633-0.932-12.878-3.123c-0.987-0.51-1.926-0.994-2.796-1.404c-6.758-3.191-14.175-3.575-20.913-1.562
		c2.47-5.061,4.352-10.371,5.076-15.365c0.508-3.501,0.365-7.141,0.227-10.661c-0.062-1.577-0.121-3.065-0.119-4.499
		c0.004-5.938,1.551-10.167,4.049-15.067c1.057-2.071,2.236-3.506,3.732-5.321c0.804-0.977,1.635-1.985,2.529-3.196
		c0.633-0.856,1.714-1.88,2.858-2.965c2.909-2.757,6.53-6.187,6.514-10.71l-6.983-0.286c-0.226,0.859-2.679,2.879-4.586,3.556
		c-2.25,0.799-6.572,1.059-9.066,0.542c-1.054-0.218-1.974-0.657-3.039-1.166c-1.662-0.794-3.733-1.783-6.545-1.882
		c-4.968-0.172-10.981,3.331-12.062,8.827l6.868,1.35c0.318-1.618,2.898-3.259,4.947-3.181c1.355,0.047,2.371,0.531,3.776,1.203
		c1.289,0.615,2.751,1.312,4.636,1.703c1.693,0.351,3.771,0.472,5.866,0.384c-0.377,0.471-0.75,0.924-1.116,1.369
		c-1.627,1.975-3.164,3.84-4.566,6.595c-2.887,5.662-4.809,10.932-4.812,18.242c0,1.572,0.063,3.201,0.125,4.777
		c0.127,3.203,0.258,6.517-0.158,9.381c-1.146,7.906-5.887,17.062-10.834,23.985c-1.616,1.632-3.07,3.472-4.322,5.509l5.611,4.144
		c1.373-1.562,2.776-3.323,4.16-5.233c6.664-6.436,16.463-8.248,25.161-4.143c0.801,0.378,1.664,0.825,2.573,1.294
		c5.401,2.79,12.799,6.61,19.396,3.073C329.91,170.242,333.101,167.066,332.749,163.145z"/>
	<path fill="#FFFFFF" d="M152.343,145.995c-4.658,0-10.327,1.653-14.881,2.983c-0.791,0.229-1.545,0.45-2.25,0.648
		c-1.245,0.35-2.89,0.561-4.632,0.781c-5.153,0.656-11.566,1.472-17.047,6.537c-2.868,2.65-3.678,6.317-4.393,9.553
		c-0.531,2.402-1.032,4.671-2.25,6.219c-0.658,0.836-1.711,1.889-2.827,3.003c-3.575,3.57-8.024,8.013-7.512,13.216l0.396,4.018
		l3.921-0.961c2.877-0.705,6.6-0.746,10.2-0.785c2.682-0.03,5.454-0.061,8.048-0.354c14.216-1.61,32.247-5.177,37.418-13.021
		c1.583-2.403,1.987-5.112,1.167-7.835c-0.693-2.301-2.199-4.015-4.501-5.131c3.447-1.946,6.627-4.375,8.107-7.202
		c1.04-1.986,1.233-4.083,0.559-6.062C161.153,149.508,158.969,145.995,152.343,145.995z M150.688,173.98
		c-2.747,4.168-15.147,7.968-32.361,9.918c-2.239,0.252-4.715,0.28-7.336,0.309c-1.805,0.02-3.638,0.04-5.442,0.139
		c1.08-1.295,2.397-2.611,3.46-3.672c1.268-1.267,2.466-2.462,3.383-3.628c0.553-0.703,1.014-1.438,1.403-2.19l0.059,0.778
		c0.403-0.02,0.862-0.067,1.402-0.147h0.003c8.312-0.969,16.937-3.049,22.787-4.65c2.556-0.352,4.801-0.529,6.676-0.529
		c3.553,0,5.958,0.655,6.275,1.711C151.217,172.745,151.127,173.314,150.688,173.98z M155.104,154.419
		c-1.692,3.233-10.916,7.394-16.645,9.031c-0.605,0.173-1.217,0.345-1.834,0.516c-5.385,0.771-11.01,2.078-15.542,3.13
		c-1.97,0.458-3.754,0.872-5.164,1.159c0.018-0.082,0.037-0.164,0.054-0.246c0.565-2.555,1.052-4.761,2.31-5.923
		c3.835-3.544,8.585-4.148,13.179-4.732c2.006-0.256,3.9-0.496,5.643-0.986c0.726-0.204,1.503-0.432,2.317-0.668
		c4.127-1.204,9.263-2.703,12.92-2.703c0.972,0,2.641,0.111,2.896,0.861C155.259,153.917,155.301,154.042,155.104,154.419z"/>
</g>
</svg>
