<?xml version="1.0" encoding="utf-8"?>
<!-- Generator: Adobe Illustrator 16.0.0, SVG Export Plug-In . SVG Version: 6.00 Build 0)  -->
<!DOCTYPE svg PUBLIC "-//W3C//DTD SVG 1.1//EN" "http://www.w3.org/Graphics/SVG/1.1/DTD/svg11.dtd">
<svg version="1.1" id="Layer_1" xmlns="http://www.w3.org/2000/svg" xmlns:xlink="http://www.w3.org/1999/xlink" x="0px" y="0px"
	 width="66.097px" height="51.222px" viewBox="0 0 66.097 51.222" enable-background="new 0 0 66.097 51.222" xml:space="preserve">
<g>
	<path d="M15.632,41.896c-0.041,1.184-0.203,5.498-2.518,7.309c-1.259,0.975-2.72,0.975-4.06,0.975H0V1.044h8.892
		c1.706,0,3.33-0.069,4.75,1.88c1.625,2.157,1.706,5.011,1.706,8.143v4.384c0,0.14,0,2.158-0.163,3.48
		c-0.528,4.105-2.314,4.523-3.167,4.802c1.665,0.557,2.314,1.253,2.842,2.367c0.893,2.018,0.812,4.314,0.812,6.611v6.959
		C15.673,40.435,15.632,41.201,15.632,41.896z M10.11,12.598c0-1.184-0.041-1.531-0.122-2.158C9.623,8.144,8.486,8.073,7.39,8.073
		H5.278v12.389h1.908c0.731,0,1.097-0.07,1.421-0.14c1.015-0.348,1.502-1.392,1.502-4.385V12.598z M10.476,32.363
		c0-1.463,0-2.02-0.162-2.715C9.907,27.63,8.608,27.56,7.552,27.56H5.278v15.52h2.233c0.446,0,0.934,0,1.34-0.139
		c1.137-0.279,1.624-1.461,1.624-4.803V32.363z"/>
	<path d="M30.816,47.953c-1.706,2.713-4.02,3.27-6.212,3.27c-2.111,0-4.264-0.486-5.969-2.854c-0.853-1.182-1.259-2.365-1.421-3.062
		c-0.487-1.738-0.609-3.826-0.609-5.637V12.11c0-1.044-0.122-5.985,1.787-8.908C19.447,1.602,21.437,0,24.645,0
		c4.142,0,6.334,2.924,7.187,5.777c0.447,1.601,0.65,3.131,0.65,6.542v27.35C32.481,42.802,32.197,45.656,30.816,47.953z
		 M27.162,12.945c0-0.278,0.122-2.506-0.325-3.967c-0.244-0.905-0.853-2.157-2.192-2.157c-0.284,0-1.056,0.069-1.706,0.904
		c-1.177,1.392-1.015,3.55-1.015,5.567v24.845c0,1.463-0.041,3.271,0.487,4.523c0.609,1.463,1.909,1.463,2.152,1.463
		c0.243,0,1.015-0.07,1.665-0.836c0.975-1.184,0.934-3.131,0.934-4.941V12.945z"/>
	<path d="M42.874,50.179l-5.076-36.817l0.447,36.817h-4.954V1.044h6.781l5.157,36.051L44.701,1.044h4.832v49.135H42.874z"/>
	<path d="M61.59,50.179v-2.924c-0.568,1.045-0.771,1.393-1.137,1.879c-1.543,2.02-3.329,2.088-3.979,2.088
		c-3.572,0-5.197-3.27-5.766-5.707c-0.324-1.391-0.406-2.854-0.406-4.314V13.224c0-2.228,0.082-4.454,0.528-6.542
		C52.007,1.253,55.54,0,58.464,0c2.314,0,5.44,0.836,6.861,4.524c0.812,2.088,0.771,4.523,0.771,5.22v7.168h-5.278V12.18
		c0-1.67,0.081-3.341-0.894-4.385C59.682,7.517,59.153,7.1,58.342,7.1c-0.243,0-1.056,0-1.665,0.765
		c-0.812,0.975-1.015,2.506-1.015,5.568v25.959c0,0.277-0.041,1.461,0.202,2.574c0.244,1.045,0.771,2.227,2.274,2.227
		c0.284,0,1.38,0.141,2.071-1.252c0.649-1.184,0.608-2.854,0.608-4.385V30.9H57.57v-7.376h8.526v26.656H61.59z"/>
</g>
</svg>
